# xmcd
#
# Track frame offsets:
#	182
#	19120
#	44372
#	63257
#	77887
#	94160
#	116125
#	121342
#	135977
#	157887
#	183180
#	195040
#	207347
#	221005
#	234047
#	250477
#
# Disc length: 3893 seconds
# Revision: 0
# Processed by: cddbd v1.5.2PL0 Copyright (c) Steve Scherf et al.
# Submitted via: dBpowerAMP V12.0
#
DISCID=ce0f3310
DTITLE=Bloodstone - Natural High
DYEAR=1972
DGENRE=Soul
TTITLE0=You Know We've Learned
TTITLE1=Who Has The Last Laugh Now
TTITLE2=Peter's Jones
TTITLE3=That's The Way we Make Our Music
TTITLE4=Damn That Rock'n'Roll - Bo Diddley - Diddley Daddy
TTITLE5=Natural High
TTITLE6=I Need Your Love
TTITLE7=Tell it to my Face
TTITLE8=Ran it in The Ground
TTITLE9=Never Let You go
TTITLE10=Girl (You Look so Fine)
TTITLE11=Judy, Judy
TTITLE12=Sadie Mae
TTITLE13=Take These Chains
TTITLE14=You Don't Mean Nothin'
TTITLE15=Little Green Apples
EXTD=
EXTT0=
EXTT1=
EXTT2=
EXTT3=
EXTT4=
EXTT5=
EXTT6=
EXTT7=
EXTT8=
EXTT9=
EXTT10=
EXTT11=
EXTT12=
EXTT13=
EXTT14=
EXTT15=
PLAYORDER=
